<svg xmlns="http://www.w3.org/2000/svg" width="1341" height="1452" viewBox="0 0 1341 1452" font-family="Inter, 'Helvetica Neue', Arial, sans-serif">
<rect x="0" y="0" width="1341" height="1452" rx="0" fill="#FFFFFF"/><text x="70" y="56" font-size="30" font-weight="600" fill="#1A1A1A">Tastatur-Kurzbefehle</text><text x="70" y="84" font-size="15" fill="#6B6B6B">Script-App · Drehbuch-Editor · deutsches QWERTZ-Layout</text><text x="911" y="40" font-size="12" fill="#6B6B6B">Farbcode</text><rect x="911" y="50" width="13" height="13" rx="3" fill="#D1E7FF" stroke="#007AFF" stroke-width="2"/><text x="931" y="61" font-size="12.5" fill="#3A3A3A">Navigation</text><rect x="1017.0" y="50" width="13" height="13" rx="3" fill="#D6D6D7" stroke="#1C1C1E" stroke-width="2"/><text x="1037.0" y="61" font-size="12.5" fill="#3A3A3A">Text / Cursor</text><rect x="1144.0" y="50" width="13" height="13" rx="3" fill="#FFECD1" stroke="#FF9500" stroke-width="2"/><text x="1164.0" y="61" font-size="12.5" fill="#3A3A3A">Elemente</text><rect x="1236.0" y="50" width="13" height="13" rx="3" fill="#D1F5E0" stroke="#00C853" stroke-width="2"/><text x="1256.0" y="61" font-size="12.5" fill="#3A3A3A">Modi</text>
<rect x="70.0" y="330.0" width="46.0" height="30.0" rx="6" fill="#FFFFFF" stroke="#D7D7D2" stroke-width="1"/><text x="93.0" y="350.0" font-size="11" fill="#1A1A1A" text-anchor="middle">Esc</text><rect x="149.5" y="330.0" width="46.0" height="30.0" rx="6" fill="#FFFFFF" stroke="#D7D7D2" stroke-width="1"/><text x="172.5" y="350.0" font-size="11" fill="#1A1A1A" text-anchor="middle">F1</text><rect x="202.5" y="330.0" width="46.0" height="30.0" rx="6" fill="#FFFFFF" stroke="#D7D7D2" stroke-width="1"/><text x="225.5" y="350.0" font-size="11" fill="#1A1A1A" text-anchor="middle">F2</text><rect x="255.5" y="330.0" width="46.0" height="30.0" rx="6" fill="#FFFFFF" stroke="#D7D7D2" stroke-width="1"/><text x="278.5" y="350.0" font-size="11" fill="#1A1A1A" text-anchor="middle">F3</text><rect x="308.5" y="330.0" width="46.0" height="30.0" rx="6" fill="#FFFFFF" stroke="#D7D7D2" stroke-width="1"/><text x="331.5" y="350.0" font-size="11" fill="#1A1A1A" text-anchor="middle">F4</text><rect x="388.0" y="330.0" width="46.0" height="30.0" rx="6" fill="#FFFFFF" stroke="#D7D7D2" stroke-width="1"/><text x="411.0" y="350.0" font-size="11" fill="#1A1A1A" text-anchor="middle">F5</text><rect x="441.0" y="330.0" width="46.0" height="30.0" rx="6" fill="#DEEEFF" stroke="#007AFF" stroke-width="2.4"/><text x="464.0" y="350.0" font-size="11" fill="#1A1A1A" text-anchor="middle">F6</text><rect x="494.0" y="330.0" width="46.0" height="30.0" rx="6" fill="#FFFFFF" stroke="#D7D7D2" stroke-width="1"/><text x="517.0" y="350.0" font-size="11" fill="#1A1A1A" text-anchor="middle">F7</text><rect x="547.0" y="330.0" width="46.0" height="30.0" rx="6" fill="#FFFFFF" stroke="#D7D7D2" stroke-width="1"/><text x="570.0" y="350.0" font-size="11" fill="#1A1A1A" text-anchor="middle">F8</text><rect x="626.5" y="330.0" width="46.0" height="30.0" rx="6" fill="#FFFFFF" stroke="#D7D7D2" stroke-width="1"/><text x="649.5" y="350.0" font-size="11" fill="#1A1A1A" text-anchor="middle">F9</text><rect x="679.5" y="330.0" width="46.0" height="30.0" rx="6" fill="#FFFFFF" stroke="#D7D7D2" stroke-width="1"/><text x="702.5" y="350.0" font-size="11" fill="#1A1A1A" text-anchor="middle">F10</text><rect x="732.5" y="330.0" width="46.0" height="30.0" rx="6" fill="#FFFFFF" stroke="#D7D7D2" stroke-width="1"/><text x="755.5" y="350.0" font-size="11" fill="#1A1A1A" text-anchor="middle">F11</text><rect x="785.5" y="330.0" width="46.0" height="30.0" rx="6" fill="#FFFFFF" stroke="#D7D7D2" stroke-width="1"/><text x="808.5" y="350.0" font-size="11" fill="#1A1A1A" text-anchor="middle">F12</text><rect x="865.0" y="330.0" width="46.0" height="30.0" rx="6" fill="#FFFFFF" stroke="#D7D7D2" stroke-width="1"/><text x="888.0" y="350.0" font-size="9" fill="#1A1A1A" text-anchor="middle">Druck</text><rect x="918.0" y="330.0" width="46.0" height="30.0" rx="6" fill="#FFFFFF" stroke="#D7D7D2" stroke-width="1"/><text x="941.0" y="350.0" font-size="9" fill="#1A1A1A" text-anchor="middle">Rollen</text><rect x="971.0" y="330.0" width="46.0" height="30.0" rx="6" fill="#FFFFFF" stroke="#D7D7D2" stroke-width="1"/><text x="994.0" y="350.0" font-size="9" fill="#1A1A1A" text-anchor="middle">Pause</text><rect x="70.0" y="376.0" width="46.0" height="46.0" rx="6" fill="#FFFFFF" stroke="#D7D7D2" stroke-width="1"/><text x="77.0" y="391.0" font-size="10" fill="#6B6B6B" text-anchor="start">°</text><text x="93.0" y="410.0" font-size="14" fill="#1A1A1A" text-anchor="middle">^</text><rect x="123.0" y="376.0" width="46.0" height="46.0" rx="6" fill="#FFF1DE" stroke="#FF9500" stroke-width="2.4"/><text x="130.0" y="391.0" font-size="10" fill="#6B6B6B" text-anchor="start">!</text><text x="146.0" y="410.0" font-size="14" fill="#1A1A1A" text-anchor="middle">1</text><rect x="176.0" y="376.0" width="46.0" height="46.0" rx="6" fill="#FFF1DE" stroke="#FF9500" stroke-width="2.4"/><text x="183.0" y="391.0" font-size="10" fill="#6B6B6B" text-anchor="start">&quot;</text><text x="199.0" y="410.0" font-size="14" fill="#1A1A1A" text-anchor="middle">2</text><rect x="229.0" y="376.0" width="46.0" height="46.0" rx="6" fill="#FFF1DE" stroke="#FF9500" stroke-width="2.4"/><text x="236.0" y="391.0" font-size="10" fill="#6B6B6B" text-anchor="start">§</text><text x="252.0" y="410.0" font-size="14" fill="#1A1A1A" text-anchor="middle">3</text><rect x="282.0" y="376.0" width="46.0" height="46.0" rx="6" fill="#FFF1DE" stroke="#FF9500" stroke-width="2.4"/><text x="289.0" y="391.0" font-size="10" fill="#6B6B6B" text-anchor="start">$</text><text x="305.0" y="410.0" font-size="14" fill="#1A1A1A" text-anchor="middle">4</text><rect x="335.0" y="376.0" width="46.0" height="46.0" rx="6" fill="#FFF1DE" stroke="#FF9500" stroke-width="2.4"/><text x="342.0" y="391.0" font-size="10" fill="#6B6B6B" text-anchor="start">%</text><text x="358.0" y="410.0" font-size="14" fill="#1A1A1A" text-anchor="middle">5</text><rect x="388.0" y="376.0" width="46.0" height="46.0" rx="6" fill="#FFF1DE" stroke="#FF9500" stroke-width="2.4"/><text x="395.0" y="391.0" font-size="10" fill="#6B6B6B" text-anchor="start">&amp;</text><text x="411.0" y="410.0" font-size="14" fill="#1A1A1A" text-anchor="middle">6</text><rect x="441.0" y="376.0" width="46.0" height="46.0" rx="6" fill="#FFF1DE" stroke="#FF9500" stroke-width="2.4"/><text x="448.0" y="391.0" font-size="10" fill="#6B6B6B" text-anchor="start">/</text><text x="464.0" y="410.0" font-size="14" fill="#1A1A1A" text-anchor="middle">7</text><rect x="494.0" y="376.0" width="46.0" height="46.0" rx="6" fill="#FFFFFF" stroke="#D7D7D2" stroke-width="1"/><text x="501.0" y="391.0" font-size="10" fill="#6B6B6B" text-anchor="start">(</text><text x="517.0" y="410.0" font-size="14" fill="#1A1A1A" text-anchor="middle">8</text><rect x="547.0" y="376.0" width="46.0" height="46.0" rx="6" fill="#FFFFFF" stroke="#D7D7D2" stroke-width="1"/><text x="554.0" y="391.0" font-size="10" fill="#6B6B6B" text-anchor="start">)</text><text x="570.0" y="410.0" font-size="14" fill="#1A1A1A" text-anchor="middle">9</text><rect x="600.0" y="376.0" width="46.0" height="46.0" rx="6" fill="#FFFFFF" stroke="#D7D7D2" stroke-width="1"/><text x="607.0" y="391.0" font-size="10" fill="#6B6B6B" text-anchor="start">=</text><text x="623.0" y="410.0" font-size="14" fill="#1A1A1A" text-anchor="middle">0</text><rect x="653.0" y="376.0" width="46.0" height="46.0" rx="6" fill="#FFFFFF" stroke="#D7D7D2" stroke-width="1"/><text x="660.0" y="391.0" font-size="10" fill="#6B6B6B" text-anchor="start">?</text><text x="676.0" y="410.0" font-size="14" fill="#1A1A1A" text-anchor="middle">ß</text><rect x="706.0" y="376.0" width="46.0" height="46.0" rx="6" fill="#FFFFFF" stroke="#D7D7D2" stroke-width="1"/><text x="713.0" y="391.0" font-size="10" fill="#6B6B6B" text-anchor="start">`</text><text x="729.0" y="410.0" font-size="14" fill="#1A1A1A" text-anchor="middle">´</text><rect x="759.0" y="376.0" width="99.0" height="46.0" rx="6" fill="#FFFFFF" stroke="#D7D7D2" stroke-width="1"/><text x="808.5" y="404.0" font-size="16" fill="#1A1A1A" text-anchor="middle">⌫</text><rect x="70.0" y="429.0" width="72.5" height="46.0" rx="6" fill="#FFFFFF" stroke="#D7D7D2" stroke-width="1"/><text x="106.2" y="457.0" font-size="12" fill="#1A1A1A" text-anchor="middle">Tab</text><rect x="149.5" y="429.0" width="46.0" height="46.0" rx="6" fill="#FFFFFF" stroke="#D7D7D2" stroke-width="1"/><text x="172.5" y="457.0" font-size="14" fill="#1A1A1A" text-anchor="middle">Q</text><rect x="202.5" y="429.0" width="46.0" height="46.0" rx="6" fill="#FFFFFF" stroke="#D7D7D2" stroke-width="1"/><text x="225.5" y="457.0" font-size="14" fill="#1A1A1A" text-anchor="middle">W</text><rect x="255.5" y="429.0" width="46.0" height="46.0" rx="6" fill="#FFFFFF" stroke="#D7D7D2" stroke-width="1"/><text x="278.5" y="457.0" font-size="14" fill="#1A1A1A" text-anchor="middle">E</text><rect x="308.5" y="429.0" width="46.0" height="46.0" rx="6" fill="#FFFFFF" stroke="#D7D7D2" stroke-width="1"/><text x="331.5" y="457.0" font-size="14" fill="#1A1A1A" text-anchor="middle">R</text><rect x="361.5" y="429.0" width="46.0" height="46.0" rx="6" fill="#FFFFFF" stroke="#D7D7D2" stroke-width="1"/><text x="384.5" y="457.0" font-size="14" fill="#1A1A1A" text-anchor="middle">T</text><rect x="414.5" y="429.0" width="46.0" height="46.0" rx="6" fill="#DEF8E9" stroke="#00C853" stroke-width="2.4"/><text x="437.5" y="457.0" font-size="14" fill="#1A1A1A" text-anchor="middle">Z</text><rect x="467.5" y="429.0" width="46.0" height="46.0" rx="6" fill="#FFFFFF" stroke="#D7D7D2" stroke-width="1"/><text x="490.5" y="457.0" font-size="14" fill="#1A1A1A" text-anchor="middle">U</text><rect x="520.5" y="429.0" width="46.0" height="46.0" rx="6" fill="#FFFFFF" stroke="#D7D7D2" stroke-width="1"/><text x="543.5" y="457.0" font-size="14" fill="#1A1A1A" text-anchor="middle">I</text><rect x="573.5" y="429.0" width="46.0" height="46.0" rx="6" fill="#FFFFFF" stroke="#D7D7D2" stroke-width="1"/><text x="596.5" y="457.0" font-size="14" fill="#1A1A1A" text-anchor="middle">O</text><rect x="626.5" y="429.0" width="46.0" height="46.0" rx="6" fill="#FFFFFF" stroke="#D7D7D2" stroke-width="1"/><text x="649.5" y="457.0" font-size="14" fill="#1A1A1A" text-anchor="middle">P</text><rect x="679.5" y="429.0" width="46.0" height="46.0" rx="6" fill="#FFFFFF" stroke="#D7D7D2" stroke-width="1"/><text x="702.5" y="457.0" font-size="14" fill="#1A1A1A" text-anchor="middle">Ü</text><rect x="732.5" y="429.0" width="46.0" height="46.0" rx="6" fill="#FFFFFF" stroke="#D7D7D2" stroke-width="1"/><text x="739.5" y="444.0" font-size="10" fill="#6B6B6B" text-anchor="start">*</text><text x="755.5" y="463.0" font-size="14" fill="#1A1A1A" text-anchor="middle">+</text><rect x="785.5" y="429.0" width="72.5" height="99.0" rx="6" fill="#FFFFFF" stroke="#D7D7D2" stroke-width="1"/><text x="821.8" y="483.5" font-size="18" fill="#1A1A1A" text-anchor="middle">↵</text><rect x="70.0" y="482.0" width="85.8" height="46.0" rx="6" fill="#FFFFFF" stroke="#D7D7D2" stroke-width="1"/><text x="112.9" y="510.0" font-size="16" fill="#1A1A1A" text-anchor="middle">⇪</text><rect x="162.8" y="482.0" width="46.0" height="46.0" rx="6" fill="#FFFFFF" stroke="#D7D7D2" stroke-width="1"/><text x="185.8" y="510.0" font-size="14" fill="#1A1A1A" text-anchor="middle">A</text><rect x="215.8" y="482.0" width="46.0" height="46.0" rx="6" fill="#FFFFFF" stroke="#D7D7D2" stroke-width="1"/><text x="238.8" y="510.0" font-size="14" fill="#1A1A1A" text-anchor="middle">S</text><rect x="268.8" y="482.0" width="46.0" height="46.0" rx="6" fill="#FFFFFF" stroke="#D7D7D2" stroke-width="1"/><text x="291.8" y="510.0" font-size="14" fill="#1A1A1A" text-anchor="middle">D</text><rect x="321.8" y="482.0" width="46.0" height="46.0" rx="6" fill="#FFFFFF" stroke="#D7D7D2" stroke-width="1"/><text x="344.8" y="510.0" font-size="14" fill="#1A1A1A" text-anchor="middle">F</text><rect x="374.8" y="482.0" width="46.0" height="46.0" rx="6" fill="#DEEEFF" stroke="#007AFF" stroke-width="2.4"/><text x="397.8" y="510.0" font-size="14" fill="#1A1A1A" text-anchor="middle">G</text><rect x="427.8" y="482.0" width="46.0" height="46.0" rx="6" fill="#FFFFFF" stroke="#D7D7D2" stroke-width="1"/><text x="450.8" y="510.0" font-size="14" fill="#1A1A1A" text-anchor="middle">H</text><rect x="480.8" y="482.0" width="46.0" height="46.0" rx="6" fill="#FFFFFF" stroke="#D7D7D2" stroke-width="1"/><text x="503.8" y="510.0" font-size="14" fill="#1A1A1A" text-anchor="middle">J</text><rect x="533.8" y="482.0" width="46.0" height="46.0" rx="6" fill="#DEF8E9" stroke="#00C853" stroke-width="2.4"/><text x="556.8" y="510.0" font-size="14" fill="#1A1A1A" text-anchor="middle">K</text><rect x="586.8" y="482.0" width="46.0" height="46.0" rx="6" fill="#FFFFFF" stroke="#D7D7D2" stroke-width="1"/><text x="609.8" y="510.0" font-size="14" fill="#1A1A1A" text-anchor="middle">L</text><rect x="639.8" y="482.0" width="46.0" height="46.0" rx="6" fill="#FFFFFF" stroke="#D7D7D2" stroke-width="1"/><text x="662.8" y="510.0" font-size="14" fill="#1A1A1A" text-anchor="middle">Ö</text><rect x="692.8" y="482.0" width="46.0" height="46.0" rx="6" fill="#FFFFFF" stroke="#D7D7D2" stroke-width="1"/><text x="715.8" y="510.0" font-size="14" fill="#1A1A1A" text-anchor="middle">Ä</text><rect x="745.8" y="482.0" width="32.8" height="46.0" rx="6" fill="#FFFFFF" stroke="#D7D7D2" stroke-width="1"/><text x="752.8" y="497.0" font-size="10" fill="#6B6B6B" text-anchor="start">&#x27;</text><text x="762.1" y="516.0" font-size="14" fill="#1A1A1A" text-anchor="middle">#</text><rect x="70.0" y="535.0" width="59.2" height="46.0" rx="6" fill="#FFFFFF" stroke="#D7D7D2" stroke-width="1"/><text x="99.6" y="563.0" font-size="16" fill="#1A1A1A" text-anchor="middle">⇧</text><rect x="136.2" y="535.0" width="46.0" height="46.0" rx="6" fill="#FFFFFF" stroke="#D7D7D2" stroke-width="1"/><text x="143.2" y="550.0" font-size="10" fill="#6B6B6B" text-anchor="start">&gt;</text><text x="159.2" y="569.0" font-size="14" fill="#1A1A1A" text-anchor="middle">&lt;</text><rect x="189.2" y="535.0" width="46.0" height="46.0" rx="6" fill="#FFFFFF" stroke="#D7D7D2" stroke-width="1"/><text x="212.2" y="563.0" font-size="14" fill="#1A1A1A" text-anchor="middle">Y</text><rect x="242.2" y="535.0" width="46.0" height="46.0" rx="6" fill="#FFFFFF" stroke="#D7D7D2" stroke-width="1"/><text x="265.2" y="563.0" font-size="14" fill="#1A1A1A" text-anchor="middle">X</text><rect x="295.2" y="535.0" width="46.0" height="46.0" rx="6" fill="#FFFFFF" stroke="#D7D7D2" stroke-width="1"/><text x="318.2" y="563.0" font-size="14" fill="#1A1A1A" text-anchor="middle">C</text><rect x="348.2" y="535.0" width="46.0" height="46.0" rx="6" fill="#FFFFFF" stroke="#D7D7D2" stroke-width="1"/><text x="371.2" y="563.0" font-size="14" fill="#1A1A1A" text-anchor="middle">V</text><rect x="401.2" y="535.0" width="46.0" height="46.0" rx="6" fill="#FFFFFF" stroke="#D7D7D2" stroke-width="1"/><text x="424.2" y="563.0" font-size="14" fill="#1A1A1A" text-anchor="middle">B</text><rect x="454.2" y="535.0" width="46.0" height="46.0" rx="6" fill="#FFFFFF" stroke="#D7D7D2" stroke-width="1"/><text x="477.2" y="563.0" font-size="14" fill="#1A1A1A" text-anchor="middle">N</text><rect x="507.2" y="535.0" width="46.0" height="46.0" rx="6" fill="#FFFFFF" stroke="#D7D7D2" stroke-width="1"/><text x="530.2" y="563.0" font-size="14" fill="#1A1A1A" text-anchor="middle">M</text><rect x="560.2" y="535.0" width="46.0" height="46.0" rx="6" fill="#FFFFFF" stroke="#D7D7D2" stroke-width="1"/><text x="567.2" y="550.0" font-size="10" fill="#6B6B6B" text-anchor="start">;</text><text x="583.2" y="569.0" font-size="14" fill="#1A1A1A" text-anchor="middle">,</text><rect x="613.2" y="535.0" width="46.0" height="46.0" rx="6" fill="#FFFFFF" stroke="#D7D7D2" stroke-width="1"/><text x="620.2" y="550.0" font-size="10" fill="#6B6B6B" text-anchor="start">:</text><text x="636.2" y="569.0" font-size="14" fill="#1A1A1A" text-anchor="middle">.</text><rect x="666.2" y="535.0" width="46.0" height="46.0" rx="6" fill="#FFFFFF" stroke="#D7D7D2" stroke-width="1"/><text x="673.2" y="550.0" font-size="10" fill="#6B6B6B" text-anchor="start">_</text><text x="689.2" y="569.0" font-size="14" fill="#1A1A1A" text-anchor="middle">-</text><rect x="719.2" y="535.0" width="138.8" height="46.0" rx="6" fill="#FFFFFF" stroke="#D7D7D2" stroke-width="1"/><text x="788.6" y="563.0" font-size="16" fill="#1A1A1A" text-anchor="middle">⇧</text><rect x="70.0" y="588.0" width="59.2" height="46.0" rx="6" fill="#F2F2F0" stroke="#BFBFBA" stroke-width="1.4"/><text x="99.6" y="616.0" font-size="11" fill="#1A1A1A" text-anchor="middle">Strg</text><rect x="136.2" y="588.0" width="59.2" height="46.0" rx="6" fill="#FFFFFF" stroke="#D7D7D2" stroke-width="1"/><text x="165.9" y="616.0" font-size="11" fill="#1A1A1A" text-anchor="middle">Win</text><rect x="202.5" y="588.0" width="59.2" height="46.0" rx="6" fill="#F2F2F0" stroke="#BFBFBA" stroke-width="1.4"/><text x="232.1" y="616.0" font-size="11" fill="#1A1A1A" text-anchor="middle">Alt</text><rect x="268.8" y="588.0" width="324.2" height="46.0" rx="6" fill="#FFFFFF" stroke="#D7D7D2" stroke-width="1"/><text x="430.9" y="616.0" font-size="14" fill="#1A1A1A" text-anchor="middle"> </text><rect x="600.0" y="588.0" width="59.2" height="46.0" rx="6" fill="#FFFFFF" stroke="#D7D7D2" stroke-width="1"/><text x="629.6" y="616.0" font-size="10" fill="#1A1A1A" text-anchor="middle">Alt Gr</text><rect x="666.2" y="588.0" width="59.2" height="46.0" rx="6" fill="#FFFFFF" stroke="#D7D7D2" stroke-width="1"/><text x="695.9" y="616.0" font-size="11" fill="#1A1A1A" text-anchor="middle">Win</text><rect x="732.5" y="588.0" width="59.2" height="46.0" rx="6" fill="#FFFFFF" stroke="#D7D7D2" stroke-width="1"/><text x="762.1" y="616.0" font-size="10" fill="#1A1A1A" text-anchor="middle">Menü</text><rect x="798.8" y="588.0" width="59.2" height="46.0" rx="6" fill="#F2F2F0" stroke="#BFBFBA" stroke-width="1.4"/><text x="828.4" y="616.0" font-size="11" fill="#1A1A1A" text-anchor="middle">Strg</text><rect x="886.0" y="376.0" width="46.0" height="46.0" rx="6" fill="#FFFFFF" stroke="#D7D7D2" stroke-width="1"/><text x="909.0" y="404.0" font-size="11" fill="#1A1A1A" text-anchor="middle">Einfg</text><rect x="939.0" y="376.0" width="46.0" height="46.0" rx="6" fill="#E1E1E2" stroke="#1C1C1E" stroke-width="2.4"/><text x="962.0" y="404.0" font-size="11" fill="#1A1A1A" text-anchor="middle">Pos 1</text><rect x="992.0" y="376.0" width="46.0" height="46.0" rx="6" fill="#DEEEFF" stroke="#007AFF" stroke-width="2.4"/><text x="1015.0" y="404.0" font-size="11" fill="#1A1A1A" text-anchor="middle">Bild ↑</text><rect x="886.0" y="429.0" width="46.0" height="46.0" rx="6" fill="#FFFFFF" stroke="#D7D7D2" stroke-width="1"/><text x="909.0" y="457.0" font-size="11" fill="#1A1A1A" text-anchor="middle">Entf</text><rect x="939.0" y="429.0" width="46.0" height="46.0" rx="6" fill="#E1E1E2" stroke="#1C1C1E" stroke-width="2.4"/><text x="962.0" y="457.0" font-size="11" fill="#1A1A1A" text-anchor="middle">Ende</text><rect x="992.0" y="429.0" width="46.0" height="46.0" rx="6" fill="#DEEEFF" stroke="#007AFF" stroke-width="2.4"/><text x="1015.0" y="457.0" font-size="11" fill="#1A1A1A" text-anchor="middle">Bild ↓</text><rect x="939.0" y="535.0" width="46.0" height="46.0" rx="6" fill="#DEEEFF" stroke="#007AFF" stroke-width="2.4"/><text x="962.0" y="563.0" font-size="18" fill="#1A1A1A" text-anchor="middle">↑</text><rect x="886.0" y="588.0" width="46.0" height="46.0" rx="6" fill="#DEEEFF" stroke="#007AFF" stroke-width="2.4"/><text x="909.0" y="616.0" font-size="18" fill="#1A1A1A" text-anchor="middle">←</text><rect x="939.0" y="588.0" width="46.0" height="46.0" rx="6" fill="#DEEEFF" stroke="#007AFF" stroke-width="2.4"/><text x="962.0" y="616.0" font-size="18" fill="#1A1A1A" text-anchor="middle">↓</text><rect x="992.0" y="588.0" width="46.0" height="46.0" rx="6" fill="#DEEEFF" stroke="#007AFF" stroke-width="2.4"/><text x="1015.0" y="616.0" font-size="18" fill="#1A1A1A" text-anchor="middle">→</text><rect x="1066.0" y="376.0" width="46.0" height="46.0" rx="6" fill="#FFFFFF" stroke="#D7D7D2" stroke-width="1"/><text x="1089.0" y="404.0" font-size="10" fill="#1A1A1A" text-anchor="middle">Num</text><rect x="1119.0" y="376.0" width="46.0" height="46.0" rx="6" fill="#FFFFFF" stroke="#D7D7D2" stroke-width="1"/><text x="1142.0" y="404.0" font-size="16" fill="#1A1A1A" text-anchor="middle">/</text><rect x="1172.0" y="376.0" width="46.0" height="46.0" rx="6" fill="#FFFFFF" stroke="#D7D7D2" stroke-width="1"/><text x="1195.0" y="404.0" font-size="16" fill="#1A1A1A" text-anchor="middle">*</text><rect x="1225.0" y="376.0" width="46.0" height="46.0" rx="6" fill="#FFFFFF" stroke="#D7D7D2" stroke-width="1"/><text x="1248.0" y="404.0" font-size="16" fill="#1A1A1A" text-anchor="middle">-</text><rect x="1066.0" y="429.0" width="46.0" height="46.0" rx="6" fill="#FFFFFF" stroke="#D7D7D2" stroke-width="1"/><text x="1089.0" y="457.0" font-size="14" fill="#1A1A1A" text-anchor="middle">7</text><rect x="1119.0" y="429.0" width="46.0" height="46.0" rx="6" fill="#FFFFFF" stroke="#D7D7D2" stroke-width="1"/><text x="1142.0" y="457.0" font-size="14" fill="#1A1A1A" text-anchor="middle">8</text><rect x="1172.0" y="429.0" width="46.0" height="46.0" rx="6" fill="#FFFFFF" stroke="#D7D7D2" stroke-width="1"/><text x="1195.0" y="457.0" font-size="14" fill="#1A1A1A" text-anchor="middle">9</text><rect x="1225.0" y="429.0" width="46.0" height="99.0" rx="6" fill="#FFFFFF" stroke="#D7D7D2" stroke-width="1"/><text x="1248.0" y="483.5" font-size="18" fill="#1A1A1A" text-anchor="middle">+</text><rect x="1066.0" y="482.0" width="46.0" height="46.0" rx="6" fill="#FFFFFF" stroke="#D7D7D2" stroke-width="1"/><text x="1089.0" y="510.0" font-size="14" fill="#1A1A1A" text-anchor="middle">4</text><rect x="1119.0" y="482.0" width="46.0" height="46.0" rx="6" fill="#FFFFFF" stroke="#D7D7D2" stroke-width="1"/><text x="1142.0" y="510.0" font-size="14" fill="#1A1A1A" text-anchor="middle">5</text><rect x="1172.0" y="482.0" width="46.0" height="46.0" rx="6" fill="#FFFFFF" stroke="#D7D7D2" stroke-width="1"/><text x="1195.0" y="510.0" font-size="14" fill="#1A1A1A" text-anchor="middle">6</text><rect x="1066.0" y="535.0" width="46.0" height="46.0" rx="6" fill="#FFFFFF" stroke="#D7D7D2" stroke-width="1"/><text x="1089.0" y="563.0" font-size="14" fill="#1A1A1A" text-anchor="middle">1</text><rect x="1119.0" y="535.0" width="46.0" height="46.0" rx="6" fill="#FFFFFF" stroke="#D7D7D2" stroke-width="1"/><text x="1142.0" y="563.0" font-size="14" fill="#1A1A1A" text-anchor="middle">2</text><rect x="1172.0" y="535.0" width="46.0" height="46.0" rx="6" fill="#FFFFFF" stroke="#D7D7D2" stroke-width="1"/><text x="1195.0" y="563.0" font-size="14" fill="#1A1A1A" text-anchor="middle">3</text><rect x="1225.0" y="535.0" width="46.0" height="99.0" rx="6" fill="#FFFFFF" stroke="#D7D7D2" stroke-width="1"/><text x="1248.0" y="589.5" font-size="18" fill="#1A1A1A" text-anchor="middle">↵</text><rect x="1066.0" y="588.0" width="99.0" height="46.0" rx="6" fill="#FFFFFF" stroke="#D7D7D2" stroke-width="1"/><text x="1115.5" y="616.0" font-size="14" fill="#1A1A1A" text-anchor="middle">0</text><rect x="1172.0" y="588.0" width="46.0" height="46.0" rx="6" fill="#FFFFFF" stroke="#D7D7D2" stroke-width="1"/><text x="1195.0" y="616.0" font-size="16" fill="#1A1A1A" text-anchor="middle">,</text>

<rect x="78" y="150" width="258" height="84" rx="9" fill="#FFFFFF" stroke="#FF9500" stroke-width="1.5"/><rect x="78" y="150" width="5" height="84" rx="2.5" fill="#FF9500"/><text x="94" y="174" font-size="15" font-weight="600" fill="#FF9500">Alt + 1 … 7</text><text x="94" y="196" font-size="13" fill="#3A3A3A">Elementtyp wählen</text><text x="94" y="215" font-size="13" fill="#3A3A3A">Szenenkopf · Aktion · Dialog …</text><path d="M305.0 234.0 L305.0 305.0 L305.0 305.0 L305.0 376.0" fill="none" stroke="#FF9500" stroke-width="1.3"/><circle cx="305.0" cy="376.0" r="3.2" fill="#FF9500"/><rect x="362" y="120" width="196" height="60" rx="9" fill="#FFFFFF" stroke="#007AFF" stroke-width="1.5"/><rect x="362" y="120" width="5" height="60" rx="2.5" fill="#007AFF"/><text x="378" y="144" font-size="15" font-weight="600" fill="#007AFF">F6</text><text x="378" y="166" font-size="13" fill="#3A3A3A">Bereich wechseln</text><path d="M464.0 180.0 L464.0 255.0 L464.0 255.0 L464.0 330.0" fill="none" stroke="#007AFF" stroke-width="1.3"/><circle cx="464.0" cy="330.0" r="3.2" fill="#007AFF"/><rect x="402" y="214" width="196" height="60" rx="9" fill="#FFFFFF" stroke="#00C853" stroke-width="1.5"/><rect x="402" y="214" width="5" height="60" rx="2.5" fill="#00C853"/><text x="418" y="238" font-size="15" font-weight="600" fill="#00C853">Alt + Z</text><text x="418" y="260" font-size="13" fill="#3A3A3A">Fokus-Modus</text><path d="M437.5 274.0 L437.5 351.5 L437.5 351.5 L437.5 429.0" fill="none" stroke="#00C853" stroke-width="1.3"/><circle cx="437.5" cy="429.0" r="3.2" fill="#00C853"/><rect x="676" y="150" width="286" height="84" rx="9" fill="#FFFFFF" stroke="#1C1C1E" stroke-width="1.5"/><rect x="676" y="150" width="5" height="84" rx="2.5" fill="#1C1C1E"/><text x="692" y="174" font-size="15" font-weight="600" fill="#222222">Pos 1 / Ende</text><text x="692" y="196" font-size="13" fill="#3A3A3A">Zeilenanfang / -ende</text><text x="692" y="215" font-size="13" fill="#3A3A3A">+ Strg: Szenenanfang / -ende</text><path d="M950.0 234.0 L950.0 305.0 L962.0 305.0 L962.0 376.0" fill="none" stroke="#1C1C1E" stroke-width="1.3"/><circle cx="962.0" cy="376.0" r="3.2" fill="#1C1C1E"/><rect x="995" y="120" width="276" height="84" rx="9" fill="#FFFFFF" stroke="#007AFF" stroke-width="1.5"/><rect x="995" y="120" width="5" height="84" rx="2.5" fill="#007AFF"/><text x="1011" y="144" font-size="15" font-weight="600" fill="#007AFF">Bild ↑ / Bild ↓</text><text x="1011" y="166" font-size="13" fill="#3A3A3A">+ Alt: Szene wechseln</text><text x="1011" y="185" font-size="13" fill="#3A3A3A">+ Alt + Shift: Folge wechseln</text><path d="M1015.0 204.0 L1015.0 290.0 L1015.0 290.0 L1015.0 376.0" fill="none" stroke="#007AFF" stroke-width="1.3"/><circle cx="1015.0" cy="376.0" r="3.2" fill="#007AFF"/><rect x="110" y="690" width="200" height="60" rx="9" fill="#FFFFFF" stroke="#007AFF" stroke-width="1.5"/><rect x="110" y="690" width="5" height="60" rx="2.5" fill="#007AFF"/><text x="126" y="714" font-size="15" font-weight="600" fill="#007AFF">Strg + G</text><text x="126" y="736" font-size="13" fill="#3A3A3A">Gehe zu Szene</text><path d="M298.0 690.0 L298.0 609.0 L397.8 609.0 L397.8 528.0" fill="none" stroke="#007AFF" stroke-width="1.3"/><circle cx="397.8" cy="528.0" r="3.2" fill="#007AFF"/><rect x="400" y="700" width="210" height="60" rx="9" fill="#FFFFFF" stroke="#00C853" stroke-width="1.5"/><rect x="400" y="700" width="5" height="60" rx="2.5" fill="#00C853"/><text x="416" y="724" font-size="15" font-weight="600" fill="#00C853">Strg + K</text><text x="416" y="746" font-size="13" fill="#3A3A3A">Befehlspalette</text><path d="M556.8 700.0 L556.8 614.0 L556.8 614.0 L556.8 528.0" fill="none" stroke="#00C853" stroke-width="1.3"/><circle cx="556.8" cy="528.0" r="3.2" fill="#00C853"/><rect x="846" y="666" width="330" height="84" rx="9" fill="#FFFFFF" stroke="#007AFF" stroke-width="1.5"/><rect x="846" y="666" width="5" height="84" rx="2.5" fill="#007AFF"/><text x="862" y="690" font-size="15" font-weight="600" fill="#007AFF">Pfeiltasten</text><text x="862" y="712" font-size="13" fill="#3A3A3A">← →  Szene wechseln</text><text x="862" y="734" font-size="13" fill="#3A3A3A">↑ ↓  + Alt: Werkstufe · + Shift: Fassung</text><path d="M1015.0 666.0 L1015.0 650.0 L1015.0 650.0 L1015.0 634.0" fill="none" stroke="#007AFF" stroke-width="1.3"/><circle cx="1015.0" cy="634.0" r="3.2" fill="#007AFF"/><path d="M962.0 666.0 L962.0 650.0 L962.0 650.0 L962.0 634.0" fill="none" stroke="#007AFF" stroke-width="1.3"/><circle cx="962.0" cy="634.0" r="3.2" fill="#007AFF"/>

<!-- ══════════════════ VOLLSTÄNDIGE LEGENDE — alle Kürzel ══════════════════ -->
<text x="70" y="794" font-size="20" font-weight="600" fill="#1A1A1A">Alle Kürzel im Überblick</text>
<text x="70" y="816" font-size="12.5" fill="#6B6B6B">Win = Strg · Mac = ⌘ (sofern nicht anders angegeben) · QWERTZ &amp; QWERTY werden automatisch erkannt (physische Tastenposition)</text>

<!-- Karte A — Szenen, Folgen & Werkfassungen (blau) -->
<rect x="70" y="836" width="384" height="314" rx="10" fill="#FFFFFF" stroke="#E3E3E0" stroke-width="1.2"/><rect x="70" y="836" width="5" height="314" rx="2.5" fill="#007AFF"/>
<text x="92" y="866" font-size="14.5" font-weight="700" fill="#007AFF">🎬  Szenen, Folgen &amp; Werkfassungen</text>
<g font-size="12.5" fill="#3A3A3A">
<text x="92" y="898" font-weight="700" fill="#007AFF">← / →</text><text x="250" y="898">Szene wechseln</text>
<text x="92" y="924" font-weight="700" fill="#007AFF">Alt + Bild ↑/↓</text><text x="250" y="924">Szene wechseln</text>
<text x="92" y="950" font-weight="700" fill="#007AFF">⌘ + ⌥ + ↑/↓</text><text x="250" y="950">Szene (Mac-Alias)</text>
<text x="92" y="976" font-weight="700" fill="#007AFF">Alt + Shift + Bild</text><text x="250" y="976">Folge wechseln</text>
<text x="92" y="1002" font-weight="700" fill="#007AFF">Alt + ↑ / ↓</text><text x="250" y="1002">Werkstufe wechseln</text>
<text x="92" y="1028" font-weight="700" fill="#007AFF">Alt + Shift + ↑/↓</text><text x="250" y="1028">Fassung wechseln</text>
<text x="92" y="1054" font-weight="700" fill="#007AFF">Strg + Shift + Bild</text><text x="250" y="1054">Szene mit aktiver Figur</text>
<text x="92" y="1080" font-weight="700" fill="#007AFF">Strg + G</text><text x="250" y="1080">Gehe zu Szene …</text>
<text x="92" y="1106" font-weight="700" fill="#007AFF">Mausrad am Rand</text><text x="250" y="1106">Overscroll → Szene</text>
<text x="92" y="1134" font-size="10.5" fill="#A0A0A0">Vollständige Liste: /hilfe → Tastenkürzel · Cheat-Sheet: ?</text>
</g>

<!-- Karte B — Editor · Text (dunkel) -->
<rect x="478" y="836" width="384" height="262" rx="10" fill="#FFFFFF" stroke="#E3E3E0" stroke-width="1.2"/><rect x="478" y="836" width="5" height="262" rx="2.5" fill="#1C1C1E"/>
<text x="500" y="866" font-size="14.5" font-weight="700" fill="#222222">⌨  Editor · Text &amp; Cursor</text>
<g font-size="12.5" fill="#3A3A3A">
<text x="500" y="898" font-weight="700" fill="#222222">Pfeile</text><text x="690" y="898">Zeichen / Zeile</text>
<text x="500" y="924" font-weight="700" fill="#222222">Strg + ← / →</text><text x="690" y="924">ein Wort</text>
<text x="500" y="950" font-weight="700" fill="#222222">Strg + ↑ / ↓</text><text x="690" y="950">ein Absatz</text>
<text x="500" y="976" font-weight="700" fill="#222222">Pos 1 / Ende</text><text x="690" y="976">Zeilenanfang / -ende</text>
<text x="500" y="1002" font-weight="700" fill="#222222">Strg + Pos 1 / Ende</text><text x="690" y="1002">Szenenanf. / -ende</text>
<text x="500" y="1028" font-weight="700" fill="#222222">Bild ↑ / ↓</text><text x="690" y="1028">im Szenentext scrollen</text>
<text x="500" y="1054" font-weight="700" fill="#222222">Strg + H</text><text x="690" y="1054">Suchen &amp; Ersetzen</text>
</g>

<!-- Karte C — Editor · Elemente (orange) -->
<rect x="886" y="836" width="384" height="262" rx="10" fill="#FFFFFF" stroke="#E3E3E0" stroke-width="1.2"/><rect x="886" y="836" width="5" height="262" rx="2.5" fill="#FF9500"/>
<text x="908" y="866" font-size="14.5" font-weight="700" fill="#FF9500">✍  Editor · Elemente</text>
<g font-size="12.5" fill="#3A3A3A">
<text x="908" y="898" font-weight="700" fill="#C56A00">Tab</text><text x="1080" y="898">nächstes Element</text>
<text x="908" y="924" font-weight="700" fill="#C56A00">Enter</text><text x="1080" y="924">Standardfolge anlegen</text>
<text x="908" y="950" font-weight="700" fill="#C56A00">Alt + 1 … 7</text><text x="1080" y="950">Elementtyp setzen</text>
<text x="908" y="976" font-weight="700" fill="#C56A00">Strg + Z / Y</text><text x="1080" y="976">Rückgängig / Wiederh.</text>
<text x="908" y="1002" font-weight="700" fill="#C56A00">Strg+Shift+L/E/R</text><text x="1080" y="1002">Ausrichtung l / m / r</text>
<text x="908" y="1036" font-size="10.5" fill="#A0A0A0">Szenenkopf · Action · Character · Parenthetical</text>
<text x="908" y="1054" font-size="10.5" fill="#A0A0A0">· Dialogue · Transition · Shot</text>
</g>

<g transform="translate(0,52)">
<!-- Karte D — Regionen, Palette & Hilfe (grün) -->
<rect x="70" y="1118" width="384" height="240" rx="10" fill="#FFFFFF" stroke="#E3E3E0" stroke-width="1.2"/><rect x="70" y="1118" width="5" height="240" rx="2.5" fill="#00C853"/>
<text x="92" y="1148" font-size="14.5" font-weight="700" fill="#00A847">⌘  Regionen, Palette &amp; Hilfe</text>
<g font-size="12.5" fill="#3A3A3A">
<text x="92" y="1180" font-weight="700" fill="#00A847">F6 / Shift+F6</text><text x="250" y="1180">Bereich wechseln</text>
<text x="92" y="1206" font-weight="700" fill="#00A847">Esc</text><text x="250" y="1206">Text verlassen → Liste</text>
<text x="92" y="1232" font-weight="700" fill="#00A847">Enter</text><text x="250" y="1232">aus Liste → in Editor</text>
<text x="92" y="1258" font-weight="700" fill="#00A847">Strg + K</text><text x="250" y="1258">Befehlspalette</text>
<text x="92" y="1284" font-weight="700" fill="#00A847">? / Strg+?</text><text x="250" y="1284">Übersicht: Grafik / Liste</text>
<text x="92" y="1310" font-weight="700" fill="#00A847">Alt + Z</text><text x="250" y="1310">Fokus-Modus</text>
<text x="92" y="1336" font-weight="700" fill="#00A847">Alt + A</text><text x="250" y="1336">Ansichts-Einstellungen</text>
</g>

<!-- Karte E — App-Navigation (lila) -->
<rect x="478" y="1118" width="384" height="240" rx="10" fill="#FFFFFF" stroke="#E3E3E0" stroke-width="1.2"/><rect x="478" y="1118" width="5" height="240" rx="2.5" fill="#AF52DE"/>
<text x="500" y="1148" font-size="14.5" font-weight="700" fill="#9333C9">📂  App-Navigation (Alt + …)</text>
<g font-size="12" fill="#3A3A3A">
<text x="500" y="1182"><tspan font-weight="700" fill="#AF52DE">Alt+^</tspan>  Episoden</text><text x="690" y="1182"><tspan font-weight="700" fill="#AF52DE">Alt+R</tspan>  Rollen</text>
<text x="500" y="1210"><tspan font-weight="700" fill="#AF52DE">Alt+K</tspan>  Komparsen</text><text x="690" y="1210"><tspan font-weight="700" fill="#AF52DE">Alt+M</tspan>  Motive</text>
<text x="500" y="1238"><tspan font-weight="700" fill="#AF52DE">Alt+S</tspan>  Statistik</text><text x="690" y="1238"><tspan font-weight="700" fill="#AF52DE">Alt+B</tspan>  Besetzung</text>
<text x="500" y="1266"><tspan font-weight="700" fill="#AF52DE">Alt+F</tspan>  Freie Dok.</text><text x="690" y="1266"><tspan font-weight="700" fill="#AF52DE">Alt+C</tspan>  Drehb.koord.</text>
<text x="500" y="1294"><tspan font-weight="700" fill="#AF52DE">Alt+E</tspan>  Export</text><text x="690" y="1294"><tspan font-weight="700" fill="#AF52DE">Alt+H</tspan>  Handbuch</text>
<text x="500" y="1322"><tspan font-weight="700" fill="#AF52DE">Alt+N</tspan>  NT-Liste</text><text x="690" y="1322"><tspan font-weight="700" fill="#AF52DE">Alt+G</tspan>  Freigaben</text>
</g>

<!-- Karte F — Bereiche & Modi (cyan) -->
<rect x="886" y="1118" width="384" height="240" rx="10" fill="#FFFFFF" stroke="#E3E3E0" stroke-width="1.2"/><rect x="886" y="1118" width="5" height="240" rx="2.5" fill="#1E9FD0"/>
<text x="908" y="1148" font-size="14.5" font-weight="700" fill="#15698C">🗂  Bereiche &amp; Modi</text>
<g font-size="12.5" fill="#3A3A3A">
<text x="908" y="1180" font-weight="700" fill="#1E9FD0">Strg + Shift + 1</text><text x="1110" y="1180">Bereich Script</text>
<text x="908" y="1206" font-weight="700" fill="#1E9FD0">Strg + Shift + K</text><text x="1110" y="1206">Bereich Konzept</text>
<text x="908" y="1232" font-weight="700" fill="#1E9FD0">Strg + Shift + L</text><text x="1110" y="1232">Bereich Analyse</text>
<text x="908" y="1258" font-weight="700" fill="#1E9FD0">Alt + Z</text><text x="1110" y="1258">Fokus-Modus an/aus</text>
<text x="908" y="1284" font-weight="700" fill="#1E9FD0">Esc</text><text x="1110" y="1284">Fokus-Modus verlassen</text>
<text x="908" y="1320" font-size="10.5" fill="#A0A0A0">Layout-unabhängig: Kürzel folgen der</text>
<text x="908" y="1338" font-size="10.5" fill="#A0A0A0">physischen Tastenposition (e.code).</text>
</g>
</g>

<text x="70" y="1438" font-size="11" fill="#B5B5B5">Serienwerft Script-App · Tastatur-Kurzbefehle · generiert aus der zentralen Shortcut-Registry (shortcuts.ts)</text>
</svg>